<?xml version="1.0" encoding="UTF-8" standalone="no"?>
<svg id="svg4440" xmlns:rdf="http://www.w3.org/1999/02/22-rdf-syntax-ns#" xmlns="http://www.w3.org/2000/svg" height="549" viewBox="0 0 527 549" width="527" version="1.1" xmlns:cc="http://creativecommons.org/ns#" xmlns:dc="http://purl.org/dc/elements/1.1/">
<path id="path4450" d="m189.29 547.07c-0.98393-1.0597-3.0962-5.4472-4.6939-9.75-3.5259-9.4955-5.0986-11.313-10.405-12.025-6.0174-0.8071-20.216 6.1981-23.678 11.682-5.15 8.16-14.51 5.29-14.51-4.46 0-4.9721-11.437-2.6647-31 6.2544-11.565 5.2725-15.983 4.6239-26.803-3.9351-8.182-6.47-15.407-9.84-21.121-9.84-10.076 0-5.7462-5.0045 4.9943-5.7729 8.9163-0.63796 12.638 0.78561 20.367 7.7902 9.9344 9.003 13.465 9.1427 25.9 1.025 32.161-20.995 63.05-21.793 80.881-2.0896 7.29 8.0557 5.7611 8.8542 21.734-11.35 8.7654-11.088 35.698-34.96 40.938-36.285 8.0553-2.0378 10.46 4.1012 3.4895 8.9066-18.526 12.771-39.087 33.989-51.866 53.527-4.7358 7.24-10.85 9.9573-14.225 6.3223zm173.79 0.0106c-1.0538-1.0538-2.876-4.0913-4.0494-6.75-7.8028-17.681-24.054-16.714-33.035 1.9663-4.4055 9.1632-7.2783 7.5859-16.028-8.8002-11.168-20.915-31.47-44.68-44.849-52.5-2.3526-1.375-6.5823-4.4158-9.3992-6.7573-2.817-2.3415-6.4948-5.1415-8.173-6.2222s-7.5412-4.9529-13.029-8.6049c-28.408-18.905-60.995-19.447-55.154-0.91644 1.9879 6.3064 1.9856 6.0043 0.0604 7.9295-3.9455 3.9455-14.773 0.67286-17.923-5.417-3.7859-7.321-9.2411 7.7696-6.512 18.014 5.1109 19.185 40.918 19.553 49.914 0.5126 4.132-8.7453 8.0916-9.852 8.0916-2.2616 0 23.924-44.139 33.776-62.651 13.983-22.41-23.96-5.13-58 30.08-59.26l13.935-0.5-7.3133-6.5c-4.02-3.58-12.32-11.22-18.44-17-44.46-41.92-50.59-46.8-71.11-56.49-23.135-10.92-49.102-4-58.928 15.72-3.5981 7.2204-3.3435 9.2616 1.796 14.401 4.271 4.271 6.304 5.008 12.378 4.4867 3.692-0.32 6.254 1.64 6.254 4.79 0 3.63-7.717 11.09-11.478 11.09-3.3439 0-3.2826 0.1543 2.2277 5.6087 17.745 17.565 42.25 10.7 42.25-11.836 0-7.0705-1.2484-7.9007-6.5105-4.3297-8.8082 5.9774-18.709-1.9731-12.859-10.326 9.6161-13.729 28.128-2.2322 27.16 16.867-1.276 25.153-24.831 34.853-49.055 20.2-7.4214-4.4889-7.9975-3.6768-2.486 3.5047 14.986 19.527 17.48 42.059 6.7328 60.843-16.339 28.557-57.315 8.2785-46.92-23.22 2.9132-8.8269 7.8533-6.0333 5.9571 3.3687-2.7437 13.604 3.1582 23.822 14.906 25.806 17.977 3.0371 29.522-24.128 17.201-40.471-1.4444-1.916-3.8433-5.3869-5.3309-7.7132-1.4875-2.3263-3.6695-4.8086-4.8487-5.5164-1.1793-0.70774-5.6625-6.1265-9.9627-12.042-35.493-48.823 12.013-106.3 68.214-82.531 7.5217 3.1811 7.5191 1.7661-0.013-7.1368-6.27-7.41-20.647-27.33-28.521-39.51-3.258-5.03-2.524-8.57 1.78-8.57 2.328 0 9.896 8.23 15.056 16.37 3.842 6.06 16.751 22.63 17.63 22.63 0.4897 0 0.82193-4.1625 0.73829-9.25-0.32976-20.057 12.299-36.75 27.803-36.75 10.023 0 18.379 11.397 14.161 19.316-3.7595 7.0587-15.805 5.8688-15.85-1.5657-0.0482-7.9369-3.5402-8.8366-9.7042-2.5-12.206 12.548-9.7273 35.721 6.3442 59.314 4.2063 6.1749 56.321 55.022 71.415 66.936 2.787 2.2 7.4054 6.086 10.263 8.6356 2.8578 2.5496 8.5709 6.6253 12.696 9.0572 4.125 2.4319 9.913 6.0834 12.862 8.1144 9.2567 6.3748 9.2808 5.4684 0.31157-11.723-5.1254-9.8241-7.2729-15.202-8.6189-21.584-4.8473-22.984-5.714-25.387-10.909-30.244-10.348-9.6766-18.553-10.087-27.909-1.3946-5.4381 5.0526-7.7722 0.18253-3.1259-6.5221 4.582-6.6118 16.04-10.429 23.707-7.8987 8.0026 2.6411 19.574 15.735 22.619 25.595 3.6561 11.837 4.9002 11.769 6.463-0.35341 0.83465-6.4741 5.6835-20.142 10.261-28.925 1.8593-3.5671 6.4792-13.972 10.267-23.122 3.7873-9.1498 8.5657-20.686 10.619-25.636 6.2917-15.17 4.2497-37.981-2.2156-24.75-2.5234 5.1642-5.4118 6.3189-12.505 4.999-6.8756-1.2793-10.621-0.0604-13.193 4.2933-2.3978 4.0592-5.1112 2.8708-8.5091-3.7266-4.2017-8.1581 3.8086-22.66 13.693-24.79 4.4531-0.95936 5.0154-3.0473 1.741-6.465-10.075-10.516-9.5917-33.73 0.94874-45.561 13.462-15.11 15.645-25.472 8.32-39.502-6.3813-12.222-4.0951-17.373 3.343-7.5312 13.077 17.302 12.847 33.637-0.66838 47.533-8.688 8.9322-8.4822 16.642 0.71024 26.614 4.941 5.3603 6.444 5.4737 8.4265 0.63564 5.6855-13.875 14.662-15.538 14.91-2.7618 0.0927 4.7824 0.82201 8.5483 2.2937 11.845 4.7692 10.682 1.1455 20.639-7.5265 20.681-7.958 0.0386-9.049 1.8814-3.0657 5.1784 5.1068 2.8141 6.6122 6.3919 6.6936 15.909 0.068 7.9491-0.0861 8.4372-10.225 32.399-4.4216 10.45-9.332 22.6-10.912 27-1.5798 4.4-4.3909 11.6-6.2469 16-7.1192 16.878-7.8579 19.258-8.845 28.5-2.1496 20.125-0.59544 32.897 5.6469 46.408 3.6288 7.854 6.6617 10.479 5.0173 4.3428-6.0797-22.688 7.2659-61.148 23.121-66.63 1.65-0.57052 5.475-1.903 8.5-2.9611 15.326-5.3606 39 4.849 39 16.819 0 5.5665-3.0508 5.5805-6.2201 0.0286-9.3254-16.336-42.953-10.042-51.946 9.7218-3.7753 8.2972-3.5788 9.1777 1.104 4.9471 6.336-5.7242 10.108-6.3661 22.236-3.7837 13.441 2.862 15.269 5.5254 6.8145 9.9289-5.8347 3.0391-8.4699 5.5331-12.555 11.882-5.1049 7.9341-9.5752 9.3933-21.933 7.1595-2.7144-0.49064-2.2854 4.948 1.194 15.138 4.093 11.988 6.6472 15.449 25.826 35 13.866 14.135 19.16 20.27 22.439 26 10.587 18.505 11.351 19.205 15.234 13.953 7.3776-9.9787 40.56-13.874 60.461-7.0967 34.228 11.656 44.987 12.058 55.986 2.0906 7.651-6.9336 11.391-8.3565 20.29-7.7198 10.797 0.77252 15.054 5.7729 4.9144 5.7729-5.2693 0-12.37 3.1935-19.844 8.924-15.548 11.922-29.85 13.945-47.5 6.7178-15.115-6.1889-15.372-6.1617-21.505 2.2706-6.8827 9.4629-11.234 11.848-14.911 8.1715zm-35.34-46.6c-7.25-2.66-19.74-14.17-19.74-18.18 0-4.6345 2.8502-3.7694 9.8521 2.9904 16.53 15.959 38.705 11.025 39.974-8.8929 0.46716-7.3365-0.21851-7.7955-6.5647-4.3942-11.125 5.9628-19.624-0.69744-12.761-10 7.256-9.8349-1.035-19.103-14.204-15.877-8.634 2.1148-25.137 11.239-32.878 18.177-8.48 7.601-14.429 9.3941-15.89 4.7896-1.129-3.5573 8.5208-13.636 24.561-25.652 2.9756-2.2291 10.744-8.0259 17.264-12.882 9.9993-7.4476 58.218-52.897 90.182-85.002 7.8599-7.8946 9.832-12.397 15.574-35.554 3.9617-15.977-1.0411-33.923-10.962-39.323-7.58-4.1255-11.401-3.2404-7.6163 1.764 4.5557 6.0232 0.20343 14.127-7.1423 13.299-18.9-2.14-15.73-27.75 3.44-27.75 20.336 0 34.005 20.217 31.776 46.998l-0.62445 7.5022 2.259-2.6482c12.474-14.624 20.415-30.333 14.761-29.202-8.9503 1.7901-8.2578-11.408 1.1916-22.712 13.815-16.525 39.669 10.55 27.558 28.859-7.1473 10.805-18.106 10.389-14.383-0.54682 2.4501-7.1972-3.2514 0.13057-8.4226 10.825-2.1991 4.5478-13.614 20.416-23.379 32.5-2.6032 3.2214-1.6604 3.7828 3.0295 1.804 22.597-9.5346 52.674-3.8283 68.115 12.923 23.026 24.98 21.063 54.342-5.729 85.712-12.55 14.695-19.06 38.199-13.537 48.879 8.58 16.59 35.56 4.59 35.56-15.82 0-4.63 1.51-7.07 4.36-7.07 9.8458 0 1.0976 25.872-11.722 34.666-34.31 23.53-50.67-21.3-25.06-68.67 10.904-20.166 11.638-25.048 2.5414-16.884-18.324 16.444-44.342 13.97-56.113-5.3359-7.8446-12.866 6.4025-32.325 17.358-23.707 5.327 4.1902 2.7047 14.001-4.1428 15.499-4.723 1.0334-5.2223 1.3252-5.2223 3.0528 0 2.7622 4.5925 7.9459 9.711 10.961 13.198 7.7749 30.77-0.58707 48.44-23.051 5.2065-6.619-3.0003-9.7212-10.522-3.9776-12.245 9.3496-29.472 8.9913-19.154-0.39833 18.98-17.271 2.0582-44.97-24.566-40.212-16.819 3.0057-19.879 5.4011-70.171 54.928-11.419 11.245-22.048 21.386-23.619 22.536-16.72 12.23-21.88 18.59-15.07 18.59 25.475 0 42.713 25.085 33.335 48.509-5.9827 14.945-26.167 23.653-41.648 17.968zm-274.83-205.97c-9.5593-5.1968-12.899-20.979-5.8361-27.577 12.902-12.052 29.479-7.4604 34.026 9.4254 2.1687 8.0538-2.9404 12.719-8.3097 7.5878-5.6313-5.3816-13.477-1.9918-12.247 5.2912 1.0441 6.18-2.0421 8.3118-7.6331 5.2723zm-51.035-8.16c-5.2909-6.3645-1.1692-29.056 6.5743-36.193 20.393-18.797 47.187-6.2012 35.606 16.739-5.5498 10.994-11.328 13.858-19.688 9.758-7.1781-3.5204-6.8806-5.8735 1.2636-9.9955 3.611-1.8276 4.9024-4.3126 3.266-6.2843-3.994-4.81-19.093 10.45-21.402 21.63-1.196 5.7925-3.1574 7.3105-5.6193 4.3491zm512.33-2.1c-0.48077-0.9625-1.9297-4.45-3.2199-7.75-5.5636-14.231-14.189-23.748-18.854-20.805-2.6536 1.6738-1.8678 3.6607 2.304 5.8255 7.0565 3.6618 5.7274 6.4384-3.0945 6.4645-9.9928 0.0296-20.179-12.597-16.276-20.176 11.293-21.932 42.766-6.3723 46.02 22.752 1.468 13.142-2.8554 21.745-6.8791 13.69zm-458.93-28.82c-21.802-17.184 9.635-49.027 36.772-37.247 14.407 6.2543 21.36 22.632 7.8138 18.405-13.555-4.229-26.323-4.0535-30.369 0.41738-4.1065 4.5376-0.54336 5.7788 9.747 3.3953 3.703-0.85772 4.5327 1.5597 2.2629 6.5932-4.3557 9.6591-18.786 14.301-26.227 8.4359zm388.98-1.4096c-7.7242-1.8337-17.054-19.084-12.685-23.454 2.5021-2.5021 4.1997-1.9011 9.9254 3.514 5.4778 5.1806 8.6572 6.0689 9.3242 2.605 1.752-9.0973-23.262-13.573-39.017-6.9816-14.006 5.8595-4.4073-10.748 10.087-17.454 25.223-11.669 58.517 6.7176 50.529 27.904-2.7249 7.2264-16.514 15.665-24.083 14.739-0.45998-0.0563-2.296-0.4489-4.0802-0.87244zm-404.01-16.27c-10.655-13.25-31.45-86.97-26.286-93.19 4.0387-4.8663 8.7269-0.40794 10.017 9.5258 1.9578 15.078 9.7569 50.978 11.441 52.661 1.2596 1.2596 1.8882-1.0142 2.6937-9.7434 0.95173-10.314 1.4677-12.465 7.007-29.214 11.463-34.66 53.564-56.699 90.185-47.21 10.584 2.7426 26.297 12.041 27.352 16.186 1.3291 5.2219-3.3194 6.6274-9.0522 2.737-2.0262-1.375-4.0521-2.5-4.502-2.5-0.44995 0-2.5168-1.35-4.5931-3-9.5154-7.5618-40.189-2.6462-52.196 8.3647-3.745 3.43-8.382 7.31-10.307 8.63-5.7951 3.9729-5.8636 6.1703-0.22757 7.3028 10.052 2.0198 20.407 19.953 15.167 26.266-1.989 2.4-7.612 1.62-14.939-2.07-12.073-6.08-15.752-4.9753-25.008 7.5105-7.8946 10.649-11.307 22.146-10.493 35.352 0.71241 11.557-2.2354 17.391-6.2597 12.388zm436.7-0.32084c-1.0634-1.2813-1.074-3.1938-0.0576-10.375 2.01-14.201 0.12017-24.676-7.2568-40.22-5.9611-12.561-12.042-15.637-24.57-12.427-7.7886 1.9954-7.794 1.9951-8.5384-0.35016-0.90313-2.8455 2.8461-9.4517 7.4756-13.172 5.481-4.4047 6.1958-2.8895-9.8904-20.965-15.41-17.32-47.32-19.65-60.46-4.42-6.29 7.28-11.64 8.35-11.64 2.32 0-12.019 26.957-23.44 53.334-22.596l14.834 0.47468 9.1659 4.6415c25.332 12.828 48.092 46.045 48.759 71.162 0.36543 13.76 2.9906 9.4406 8.2042-13.5 1.9374-8.525 3.8166-18.056 4.1759-21.18 0.67862-5.9006 2.2316-8.221 5.1216-7.6526 3.2551 0.64026 3.8917 3.2574 2.6814 11.024-6.8047 43.663-24.008 86.067-31.335 77.238zm-363.94-30.9c-3.575-1.8809-7.7375-3.9396-9.25-4.575-8.9081-3.742 2.228-5.8386 12.923-2.4331 24.313 7.7417 41.66-3.8941 46.256-31.026 1.9803-11.691 1.9062-11.5 4.4675-11.5 9.8564 0 3.2532 30.122-9.4117 42.933-10.43 10.55-31.581 13.654-44.985 6.6018zm271-2.4829c-13.98-2.66-22.15-8.49-27.95-19.93-6.8-13.42-6.8-28.12 0-28.12 3.3649 0 3.9465 1.3884 3.9465 9.4221 0 30.41 41.044 41.298 54.554 14.471 4.3106-8.5598 7.4462-9.6348 7.4462-2.553 0 16.676-19.329 30.264-38 26.711zm-267.22-46.57c-7.3001-2.3572-17.219-9.5493-17.598-12.76-0.53299-4.5154 3.567-4.6237 10.713-0.28278 14.344 8.7137 39.966 8.5274 50.702-0.3686 1.7062-1.4138 4.4415-3.2928 6.0784-4.1756 18.221-9.8263 26.419-34.467 21.426-64.395-5.77-34.644-32.76-56.364-72.1-58.026-14.805-0.62583-16-0.91455-16-3.8673 0-7.2599 25.325-6.9076 44.806 0.62341 11.127 4.3011 24.501 1.42 33.096-7.1293 2.82-2.8041 5.38-5.098 5.68-5.098 3.8216 0 7.0116 6.9056 6.0289 13.051-1.2983 8.1194 8.2563 6.5402 21.892-3.6183 12.325-9.182 31.754-7.657 34.023 2.6705 1.5134 6.8902-3.9338 9.8701-7.0449 3.8539-4.0641-7.8592-14.028-5.6205-26.694 5.9975-6.94 6.372-19.01 12.046-25.62 12.046-6.2608 0-6.894 2.1097-2.4296 8.0955 11.219 15.042 14.769 26.344 15.835 50.404 0.53941 12.18 0.98688 14.91 3.442 21 6.5998 16.371 3.3625 21.707-8.0642 13.294-2.9527-2.1741-5.5656-1.5659-6.5462 1.5238-1.2867 4.0539-17.737 18.973-25.968 23.55l-7.8541 4.368-16.539 0.38437c-12.905 0.29993-17.575 0.0499-21.254-1.1382zm253.72-2.49c-11.51-1.76-25.08-8.95-30.17-15.99-1.7903-2.475-4.1002-5.5931-5.133-6.9291l-1.8779-2.4291-3.5259 2.1791c-4.1215 2.5472-7.05 2.7755-8.7851 0.68489-1.2768-1.5385-1.1924-2.2127 1.4307-11.435 0.92397-3.2483 1.9944-13.892 2.6651-26.5 1.4184-26.665 3.5112-32.679 18.61-53.486l1.7523-2.4148-4.4814 0.9125c-19.962 4.0647-32.508 0.0965-47.389-14.989-16.84-17.064-27.1-20.921-27.1-10.186 0 6.2248-1.4994 6.7935-6.0125 2.2804-6.7911-6.7911-2.4637-16.673 7.3096-16.693 4.2066-0.0083678 18.164 5.909 23.703 10.049 17.808 13.311 23.426 15.009 26.909 8.1361 5.1218-10.107 11.353-11.229 15.115-2.7218 4.1629 9.4132 12.519 11.246 27.976 6.1355 13.867-4.5849 39.892-8.5249 43.512-6.5875 2.5536 1.3667 0.80461 6.8304-2.3615 7.3771-41.93 7.241-60.07 21.924-68.71 55.618-12.299 47.981 42.69 92.289 74.274 59.847 5.0367-5.1736 6.7148-5.7705 9.2094-3.276 10.193 10.193-22.044 24.217-46.929 20.415zm127.86-12.978c-8.4805-3.4223-6.5083-17.544 2.8002-20.051 9.4648-2.5486 15.508 2.3052 14.541 11.678-0.89928 8.7131-8.0007 12.142-17.341 8.3724zm-486.58-4.57c-9.4172-5.11-3.7852-22.44 7.293-22.44 1.192 0 3.9144 1.7471 6.0497 3.8824 9.9477 9.9477-1.0421 25.234-13.343 18.559zm489.68-22.91c-0.8-1.91-1.45-3.92-1.45-4.49 0-2.3818-6.4839-20.987-9.6068-27.566-4.1754-8.7966-4.3224-11.206-0.73841-12.106 6.9363-1.7409 17.488 21.194 19.036 41.378l0.47956 6.25h-3.1364c-2.6336 0-3.3686-0.55584-4.5853-3.4679zm-407.79 0.63914c-2.1847-2.4141-2.0876-6.0029 0.38736-14.313 3.1805-10.68 6.4033-8.0689 7.6443 6.1925 0.77427 8.8981-3.4567 13.176-8.0316 8.121zm323.9-4.39c-2.0004-2.856-2.0164-9.1511-0.0274-10.802 2.1906-1.818 6.4707 2.3256 6.4707 6.2644 0 6.2114-3.5298 8.6971-6.4433 4.5374zm-403.89-0.45c-2.5763-2.5763 1.883-28.945 5.9427-35.141 4.4676-6.8184 8.7064-0.86226 5.3215 7.4775-1.2338 3.0399-2.3242 7.3952-2.4231 9.6784-0.56909 13.142-4.8915 21.934-8.8412 17.985zm50.338-1.07c-7.167-2.53-14.572-10.842-21.419-24.037-6.343-12.222-8.292-14.197-16.95-17.176-14.139-4.865-13.712-7.484 1.114-6.83 16.049 0.708 19.649 2.949 33.003 20.544 4.16 5.482 6.921 8.239 8.25 8.239 3.936 0 2.009-8.286-3.177-13.664-7.965-8.259 10.525-6.811 19.516 1.528 18.158 16.841 3.321 39.736-20.337 31.396zm47.779-1.8103c-11.202-6.0798-9.674-24.054 2.63-30.935 10.619-5.9383 22.26-3.776 14.509 2.6949-1.84 1.533-3.85 2.79-4.46 2.79-1.7479 0-5.7462 4.7313-5.0078 5.926 1.1638 1.8831 3.3475 1.1612 5.4596-1.805 10.435-14.654 42.071-28.32 48.673-21.025 2.2643 2.5021 0.79864 4.2116-6.4557 7.5298-7.7685 3.5534-12.826 7.8403-16.887 14.314-11.485 18.308-27.135 26.652-38.46 20.505zm273.06-0.83943c-9.7625-3.4872-17.152-10.039-23.204-20.573-3.4628-6.0275-7.8214-9.4815-14.05-11.134-12.474-3.3095-7.6021-9.3375 5.703-7.056 9.0666 1.5548 11.476 2.9338 21.315 12.202 13.108 12.347 22.772 12.268 14.454-0.11795-5.0507-7.5204 6.1425-10.3 16.969-4.2143 21.199 11.917 2.4048 39.321-21.188 30.893zm45.436-0.23945c-21.271-10.487-9.2703-42.166 14.723-38.866 7.8189 1.0754 8.7877 5.9263 1.615 8.0864-3.05 0.915-7.62 5.474-7.62 7.597 0 3.707 3.4676 1.5506 12.988-8.0769 17.409-17.605 34.348-21.498 50.146-11.525 8.1525 5.1464 5.0815 6.4845-11.227 4.8918-13.07-1.276-22.71 3.215-27.55 12.835-10.49 20.808-22.79 30.128-33.08 25.058zm-336.81-24.32c-12.149-4.926-15.468-25.059-7.699-46.701l4.003-11.152-1.812-7.348c-0.997-4.042-2.369-8.7451-3.05-10.452-3.874-9.7146 3.374-8.323 8.348 1.603 7.8999 15.766 9.9339 28.561 6.4573 40.62-1.3382 4.6418-1.5154 6.7751-0.73368 8.8313 2.1182 5.5714 7.1787-0.51891 7.8221-9.414 1.0361-14.324 12.212-5.883 12.443 9.3988 0.2095 13.816-15.474 28.791-25.779 24.613zm312.68-8.416c-11.183-6.6633-13.886-13.361-9.1424-22.658 3.283-6.4352 10.178-6.6759 10.752-0.3753 0.68 7.459 1.34 9.399 3.18 9.399 3.8053 0 3.9986-5.0011 0.52864-13.675-4.03-10.061-5.09-26.484-1.97-30.325 0.6711-0.825 2.4985-3.75 4.061-6.5 5.7895-10.19 8.9728-8.1383 5.4305 3.5-3.0279 9.9483-2.3965 16.609 2.2004 23.212 7.4076 10.64 9.2733 22.673 4.956 31.963-5.0452 10.856-9.0864 11.959-19.995 5.4595zm-374.48-16.301c-1.4394-1.4394-0.51946-4.1459 2.6864-7.9033 9.3347-10.941 9.3556-22.854 0.0568-32.287-6.131-6.218-5.545-9.143 1.83-9.143 5.7647 0 11.259 3.3518 16.448 10.035 5.602 7.2138 5.6846 7.2185 17.428 0.98465 11.38-6.041 14.457-6.388 15.705-1.77l0.87838 3.25-8.8478 4.1887c-12.587 5.959-22.22 12.966-32.784 23.848-8.359 8.61-11.516 10.682-13.401 8.796zm441.73-6.361c-8.88-11.3-24.63-21.945-39.13-26.444-14.428-4.4774-16.087-5.6326-13.156-9.1639 2.8649-3.452 23.448 1.2432 32.099 7.3221 11.81 8.294 14.79 8.474 14.79 0.89 0-8.2651 10.27-16.12 20.926-16.006 19.57 0.20942 24.631 9.1903 6.45 11.445-14.481 1.7959-21.54 17.215-13.005 28.405 3.791 4.9703 3.3609 8.9599-1.0117 9.3849-2.795 0.27162-3.6706-0.36978-7.9631-5.8334z"/>
</svg>
